<svg width="120" height="19" viewBox="0 0 120 19" fill="none" xmlns="http://www.w3.org/2000/svg">
<path d="M9.81656 10.1133V8.27344H2.69156V2.78906H10.8947V0.9375H0.523594V18H11.0002V16.1602H2.69156V10.1133H9.81656ZM23.8491 7.62891L20.2162 0.9375H17.6733L22.6303 9.39844L17.5444 18H20.1108L23.8959 11.1797L27.6694 18H30.2006L25.1264 9.39844L30.0834 0.9375H27.5287L23.8491 7.62891ZM39.0652 11.1562H42.4284C43.1941 11.1484 43.9167 11.0312 44.5964 10.8047C45.2839 10.5781 45.8855 10.25 46.4011 9.82031C46.9167 9.39062 47.323 8.86328 47.6198 8.23828C47.9245 7.60547 48.0769 6.87891 48.0769 6.05859C48.0769 5.23828 47.9245 4.51172 47.6198 3.87891C47.323 3.24609 46.9167 2.71484 46.4011 2.28516C45.8855 1.85547 45.2839 1.52734 44.5964 1.30078C43.9167 1.07422 43.1941 0.953125 42.4284 0.9375H36.8972V18H39.0652V11.1562ZM39.0652 9.375V2.71875H42.4284C42.9284 2.72656 43.3894 2.80859 43.8112 2.96484C44.2409 3.12109 44.612 3.34375 44.9245 3.63281C45.2292 3.92188 45.4675 4.27344 45.6394 4.6875C45.8191 5.10156 45.9089 5.56641 45.9089 6.08203C45.9089 6.59766 45.8191 7.05859 45.6394 7.46484C45.4675 7.86328 45.2253 8.20312 44.9128 8.48438C44.6003 8.76562 44.2331 8.98438 43.8112 9.14062C43.3894 9.28906 42.9284 9.36719 42.4284 9.375H39.0652ZM57.2812 16.1602V0.9375H55.1133V18H65.625V16.1602H57.2812ZM84.0638 10.4531V8.50781C84.0559 7.89844 84.0013 7.28125 83.8997 6.65625C83.8059 6.03125 83.6575 5.42969 83.4544 4.85156C83.2434 4.27344 82.9778 3.73438 82.6575 3.23438C82.345 2.72656 81.97 2.28516 81.5325 1.91016C81.095 1.53516 80.5911 1.24219 80.0208 1.03125C79.4505 0.8125 78.8138 0.703125 78.1106 0.703125C77.4075 0.703125 76.7708 0.8125 76.2005 1.03125C75.638 1.24219 75.138 1.53516 74.7005 1.91016C74.263 2.29297 73.8841 2.73828 73.5638 3.24609C73.2513 3.74609 72.9934 4.28516 72.7903 4.86328C72.5794 5.44141 72.4231 6.04297 72.3216 6.66797C72.2278 7.28516 72.177 7.89844 72.1692 8.50781V10.4531C72.177 11.0625 72.2317 11.6758 72.3333 12.293C72.4348 12.9102 72.5911 13.5078 72.802 14.0859C73.0052 14.6641 73.2669 15.207 73.5872 15.7148C73.9075 16.2148 74.2864 16.6523 74.7239 17.0273C75.1614 17.4023 75.6614 17.6992 76.2239 17.918C76.7942 18.1289 77.4309 18.2344 78.1341 18.2344C78.8372 18.2344 79.47 18.1289 80.0325 17.918C80.6028 17.6992 81.1067 17.4023 81.5442 17.0273C81.9817 16.6523 82.3567 16.2148 82.6692 15.7148C82.9895 15.2148 83.2513 14.6758 83.4544 14.0977C83.6575 13.5195 83.8059 12.9219 83.8997 12.3047C84.0013 11.6797 84.0559 11.0625 84.0638 10.4531ZM81.9192 8.48438V10.4531C81.9114 10.8594 81.8841 11.2852 81.8372 11.7305C81.7981 12.1758 81.7239 12.6133 81.6145 13.043C81.4973 13.4805 81.345 13.8984 81.1575 14.2969C80.9778 14.6875 80.7513 15.0312 80.4778 15.3281C80.1966 15.6328 79.8606 15.875 79.47 16.0547C79.0872 16.2344 78.6419 16.3242 78.1341 16.3242C77.6263 16.3242 77.1809 16.2344 76.7981 16.0547C76.4153 15.875 76.0833 15.6328 75.802 15.3281C75.5208 15.0312 75.2864 14.6836 75.0989 14.2852C74.9114 13.8867 74.7591 13.4688 74.6419 13.0312C74.5247 12.6016 74.4388 12.1641 74.3841 11.7188C74.3372 11.2734 74.3098 10.8516 74.302 10.4531V8.48438C74.3098 8.08594 74.3372 7.66797 74.3841 7.23047C74.4388 6.78516 74.5247 6.34375 74.6419 5.90625C74.7513 5.47656 74.8997 5.06641 75.0872 4.67578C75.2747 4.27734 75.5091 3.92578 75.7903 3.62109C76.0716 3.32422 76.4036 3.08594 76.7864 2.90625C77.1692 2.72656 77.6106 2.63672 78.1106 2.63672C78.6184 2.63672 79.0638 2.72656 79.4466 2.90625C79.8294 3.07812 80.1614 3.3125 80.4427 3.60938C80.7239 3.91406 80.9583 4.26562 81.1458 4.66406C81.3333 5.05469 81.4856 5.46484 81.6028 5.89453C81.7122 6.33203 81.7903 6.77344 81.8372 7.21875C81.8841 7.65625 81.9114 8.07812 81.9192 8.48438ZM96.7486 11.0391L100.1 18H102.385L102.397 17.8594L98.7759 10.5703C99.2447 10.3672 99.6744 10.1211 100.065 9.83203C100.456 9.54297 100.792 9.21094 101.073 8.83594C101.354 8.46094 101.573 8.04297 101.729 7.58203C101.893 7.12109 101.975 6.61328 101.975 6.05859C101.975 5.19922 101.823 4.45312 101.518 3.82031C101.221 3.17969 100.811 2.64844 100.288 2.22656C99.7564 1.80469 99.1392 1.48828 98.4361 1.27734C97.733 1.06641 96.983 0.953125 96.1861 0.9375H91.1822V18H93.3384V11.0391H96.7486ZM93.3384 9.25781V2.71875H96.1861C96.7095 2.72656 97.19 2.80078 97.6275 2.94141C98.0728 3.08203 98.4556 3.28906 98.7759 3.5625C99.0963 3.84375 99.3463 4.19141 99.5259 4.60547C99.7056 5.01172 99.7955 5.48828 99.7955 6.03516C99.7955 6.55078 99.7017 7.00781 99.5142 7.40625C99.3267 7.79688 99.0728 8.12891 98.7525 8.40234C98.4244 8.67578 98.0455 8.88672 97.6158 9.03516C97.1861 9.17578 96.7291 9.25 96.2447 9.25781H93.3384ZM118.621 10.1133V8.27344H111.496V2.78906H119.699V0.9375H109.328V18H119.805V16.1602H111.496V10.1133H118.621Z" fill="white"/>
</svg>
