<?xml version="1.0" encoding="utf-8"?>
<!-- Generator: Adobe Illustrator 23.0.5, SVG Export Plug-In . SVG Version: 6.00 Build 0)  -->
<svg version="1.1" id="Layer_1" xmlns="http://www.w3.org/2000/svg" xmlns:xlink="http://www.w3.org/1999/xlink" x="0px" y="0px"
	 viewBox="0 0 319.8 53" style="enable-background:new 0 0 319.8 53;" xml:space="preserve">
<style type="text/css">
	.st0{fill:url(#SVGID_1_);}
</style>
<linearGradient id="SVGID_1_" gradientUnits="userSpaceOnUse" x1="158.9818" y1="54" x2="158.9818" y2="1" gradientTransform="matrix(1 0 0 -1 0 54)">
	<stop  offset="0.5426" style="stop-color:#FFFFFF"/>
	<stop  offset="0.7564" style="stop-color:#D7D0D0"/>
	<stop  offset="0.811" style="stop-color:#595E65"/>
</linearGradient>
<path class="st0" d="M0,41V13h5.6l8.8,17.9L23.2,13h5.6v28h-4V18.1L14.4,39L3.9,18.1V41H0z M40.5,41V13h20.6v3.7H44.7v8.4h10.8v3.6
	H44.7v8.7h16.6V41H40.5z M79.3,41V16.7h-9.8V13h23.9v3.7h-9.8V41H79.3z M95,41l11.6-28h5l11.4,28h-4.6l-3.2-8.2h-12.5L99.3,41H95z
	 M104,29.3h9.8L108.9,17L104,29.3z M131.8,41V13h13c1.8,0,3.4,0.4,4.8,1.1c1.4,0.7,2.4,1.7,3.2,2.9s1.2,2.7,1.2,4.4
	c0,1.7-0.4,3.1-1.2,4.4c-0.8,1.3-1.9,2.2-3.2,3c-1.4,0.7-2.9,1-4.8,1H136V41H131.8z M136,26.2h8.3c1.7,0,3-0.4,3.9-1.3
	c1-0.9,1.5-2,1.5-3.5s-0.5-2.6-1.5-3.4c-1-0.9-2.3-1.3-3.9-1.3H136V26.2z M164.3,41V13h4.2v12h14.9V13h4.2v28h-4.2V28.8h-14.9V41
	H164.3z M199.2,41V13h12.7c1.9,0,3.5,0.3,4.9,1c1.4,0.7,2.5,1.7,3.3,2.9c0.8,1.2,1.2,2.7,1.2,4.3c0,1.8-0.5,3.4-1.6,4.8
	c-1,1.3-2.4,2.3-4.2,2.9l6.2,12.1h-4.6l-5.8-11.5h-7.9V41H199.2z M203.4,26h8.2c1.7,0,3-0.4,4-1.2c1-0.9,1.5-2,1.5-3.4
	c0-1.4-0.5-2.5-1.5-3.4c-1-0.9-2.3-1.3-4-1.3h-8.2V26z M229.2,41l11.6-28h5l11.4,28h-4.6l-3.2-8.2h-12.5l-3.3,8.2H229.2z
	 M238.2,29.3h9.8L243.1,17L238.2,29.3z M276.1,41.4c-2.2,0-4.4-0.4-6.5-1.3c-2.1-0.9-3.9-2.1-5.5-3.7l2.6-3c1.5,1.5,3.1,2.6,4.6,3.3
	c1.6,0.7,3.3,1.1,5,1.1c1.4,0,2.5-0.2,3.6-0.6c1-0.4,1.8-1,2.4-1.7c0.6-0.7,0.8-1.5,0.8-2.4c0-1.3-0.4-2.2-1.3-2.9s-2.3-1.2-4.4-1.5
	l-4.7-0.8c-2.6-0.5-4.5-1.3-5.8-2.5c-1.3-1.2-1.9-2.8-1.9-4.8c0-1.6,0.4-3,1.3-4.2c0.9-1.2,2.1-2.2,3.6-2.8c1.6-0.7,3.4-1,5.4-1
	c2,0,4,0.3,6,1c2,0.6,3.7,1.6,5.3,2.8l-2.3,3.2c-3-2.3-6.1-3.4-9.2-3.4c-1.2,0-2.3,0.2-3.2,0.5c-0.9,0.3-1.6,0.8-2.1,1.5
	c-0.5,0.6-0.8,1.3-0.8,2.2c0,1.1,0.4,2,1.2,2.6c0.8,0.6,2.1,1,3.8,1.3l4.5,0.8c3,0.5,5.1,1.3,6.5,2.6c1.4,1.3,2.1,3,2.1,5.2
	c0,1.7-0.5,3.2-1.4,4.5c-0.9,1.3-2.2,2.3-3.9,3C280.3,41,278.3,41.4,276.1,41.4z M297.2,41V13h20.6v3.7h-16.4v8.4h10.8v3.6h-10.8
	v8.7H318V41H297.2z"/>
</svg>
