<svg width="67" height="67" viewBox="0 0 67 67" fill="none" xmlns="http://www.w3.org/2000/svg">
<path d="M58.625 50.25V53.0417C58.625 56.1125 56.1125 58.625 53.0417 58.625H13.9583C10.8596 58.625 8.375 56.1125 8.375 53.0417V13.9583C8.375 10.8875 10.8596 8.375 13.9583 8.375H53.0417C56.1125 8.375 58.625 10.8875 58.625 13.9583V16.75H33.5C30.4013 16.75 27.9167 19.2625 27.9167 22.3333V44.6667C27.9167 47.7375 30.4013 50.25 33.5 50.25H58.625ZM33.5 44.6667H61.4167V22.3333H33.5V44.6667ZM44.6667 37.6875C42.3496 37.6875 40.4792 35.8171 40.4792 33.5C40.4792 31.1829 42.3496 29.3125 44.6667 29.3125C46.9838 29.3125 48.8542 31.1829 48.8542 33.5C48.8542 35.8171 46.9838 37.6875 44.6667 37.6875Z" fill="url(#paint0_linear_777_1164)"/>
<defs>
<linearGradient id="paint0_linear_777_1164" x1="34.8958" y1="8.375" x2="34.8958" y2="58.625" gradientUnits="userSpaceOnUse">
<stop offset="0.510417" stop-color="white"/>
<stop offset="1" stop-color="#D5D3C8"/>
</linearGradient>
</defs>
</svg>
