<svg width="41" height="41" viewBox="0 0 41 41" fill="none" xmlns="http://www.w3.org/2000/svg">
<path d="M23.0631 1.14458C23.0631 1.14458 24.3273 5.67166 24.3273 9.34458C24.3273 12.8637 22.0211 15.7167 18.5019 15.7167C14.9657 15.7167 12.3007 12.8637 12.3007 9.34458L12.3519 8.72958C8.90107 12.8296 6.83398 18.1425 6.83398 23.9167C6.83398 31.4675 12.9498 37.5833 20.5006 37.5833C28.0515 37.5833 34.1673 31.4675 34.1673 23.9167C34.1673 14.7087 29.7427 6.49166 23.0631 1.14458ZM20.0052 32.4583C16.9644 32.4583 14.5044 30.0667 14.5044 27.0942C14.5044 24.3267 16.2982 22.3792 19.3048 21.7642C22.3286 21.1492 25.4548 19.6971 27.1973 17.3567C27.8636 19.5604 28.2052 21.8837 28.2052 24.2583C28.2052 28.7854 24.5323 32.4583 20.0052 32.4583Z" fill="white"/>
</svg>
